<?xml version='1.0' encoding='utf-8'?>
<svg xmlns="http://www.w3.org/2000/svg" viewBox="0 0 960 720" width="960" height="720" style="font-family: Arial, Helvetica, sans-serif; font-size: 13px;">
  <rect width="100%" height="100%" fill="#ffffff" />
  <defs>
    <marker id="arrowhead" markerWidth="10" markerHeight="7" refX="9" refY="3.5" orient="auto" markerUnits="strokeWidth">
      <polygon points="0 0, 10 3.5, 0 7" fill="#888" />
    </marker>
  </defs>
  <text x="480" y="32" fill="#2F5597" font-size="17" font-weight="bold" text-anchor="middle">
    <tspan x="480" dy="0">AI Report Composition and Control Flow</tspan>
  </text>
  <g>
    <rect x="45" y="65" width="250" height="105" fill="#FFF2CC" stroke="#BF9000" stroke-width="2" rx="6" />
  </g>
  <text x="170" y="92" fill="#8B6914" font-size="13" font-weight="bold" text-anchor="middle">
    <tspan x="170" dy="0">Evidence Inputs</tspan>
  </text>
  <text x="170" y="117" fill="#8B6914" font-size="10" font-weight="normal" text-anchor="middle">
    <tspan x="170" dy="0">Verified Gold results</tspan>
    <tspan x="170" dy="12">Top-k literature + local evidence</tspan>
    <tspan x="170" dy="12">Figures and scoreboards</tspan>
  </text>
  <g>
    <rect x="355" y="65" width="250" height="105" fill="#D9E2F3" stroke="#2F5597" stroke-width="2" rx="6" />
  </g>
  <text x="480" y="92" fill="#2F5597" font-size="13" font-weight="bold" text-anchor="middle">
    <tspan x="480" dy="0">Report Orchestration</tspan>
  </text>
  <text x="480" y="117" fill="#2F5597" font-size="10" font-weight="normal" text-anchor="middle">
    <tspan x="480" dy="0">7 retrieval queries</tspan>
    <tspan x="480" dy="12">Deterministic section composer</tspan>
    <tspan x="480" dy="12">Citation-aware evidence registers</tspan>
  </text>
  <g>
    <rect x="665" y="65" width="250" height="105" fill="#F2F2F2" stroke="#777" stroke-width="2" rx="6" />
  </g>
  <text x="790" y="92" fill="#555" font-size="13" font-weight="bold" text-anchor="middle">
    <tspan x="790" dy="0">Prompt Contract</tspan>
  </text>
  <text x="790" y="117" fill="#555" font-size="10" font-weight="normal" text-anchor="middle">
    <tspan x="790" dy="0">External rewrite: inactive</tspan>
    <tspan x="790" dy="12">No new effects or citations</tspan>
    <tspan x="790" dy="12">No causal upgrade</tspan>
  </text>
  <line x1="295" y1="118" x2="355" y2="118" stroke="#BF9000" stroke-width="2" marker-end="url(#arrowhead)" />
  <line x1="605" y1="118" x2="665" y2="118" stroke="#777" stroke-width="2" marker-end="url(#arrowhead)" stroke-dasharray="6,4" />
  <text x="480" y="210" fill="#333" font-size="12" font-weight="bold" text-anchor="middle">
    <tspan x="480" dy="0">Sections parsed from latest_verified_decision_support_report.md</tspan>
  </text>
  <g>
    <rect x="70" y="235" width="390" height="34" fill="#F7F9FC" stroke="#6B7A90" stroke-width="2" rx="4" />
  </g>
  <text x="265" y="257" fill="#34495E" font-size="10" font-weight="normal" text-anchor="middle">
    <tspan x="265" dy="0">Report Metadata and Retrieval Status</tspan>
  </text>
  <g>
    <rect x="500" y="235" width="390" height="34" fill="#F7F9FC" stroke="#6B7A90" stroke-width="2" rx="4" />
  </g>
  <text x="695" y="257" fill="#34495E" font-size="10" font-weight="normal" text-anchor="middle">
    <tspan x="695" dy="0">Executive Interpretation</tspan>
  </text>
  <g>
    <rect x="70" y="283" width="390" height="34" fill="#F7F9FC" stroke="#6B7A90" stroke-width="2" rx="4" />
  </g>
  <text x="265" y="305" fill="#34495E" font-size="10" font-weight="normal" text-anchor="middle">
    <tspan x="265" dy="0">Empirical Findings</tspan>
  </text>
  <g>
    <rect x="500" y="283" width="390" height="34" fill="#F7F9FC" stroke="#6B7A90" stroke-width="2" rx="4" />
  </g>
  <text x="695" y="305" fill="#34495E" font-size="10" font-weight="normal" text-anchor="middle">
    <tspan x="695" dy="0">Figure-Grounded Analysis</tspan>
  </text>
  <g>
    <rect x="70" y="331" width="390" height="34" fill="#F7F9FC" stroke="#6B7A90" stroke-width="2" rx="4" />
  </g>
  <text x="265" y="353" fill="#34495E" font-size="10" font-weight="normal" text-anchor="middle">
    <tspan x="265" dy="0">Literature-Grounded Interpretation</tspan>
  </text>
  <g>
    <rect x="500" y="331" width="390" height="34" fill="#F7F9FC" stroke="#6B7A90" stroke-width="2" rx="4" />
  </g>
  <text x="695" y="353" fill="#34495E" font-size="10" font-weight="normal" text-anchor="middle">
    <tspan x="695" dy="0">Retrieval-Grounded Evidence</tspan>
  </text>
  <g>
    <rect x="70" y="379" width="390" height="34" fill="#F7F9FC" stroke="#6B7A90" stroke-width="2" rx="4" />
  </g>
  <text x="265" y="401" fill="#34495E" font-size="10" font-weight="normal" text-anchor="middle">
    <tspan x="265" dy="0">Evidence Boundary</tspan>
  </text>
  <g>
    <rect x="500" y="379" width="390" height="34" fill="#F7F9FC" stroke="#6B7A90" stroke-width="2" rx="4" />
  </g>
  <text x="695" y="401" fill="#34495E" font-size="10" font-weight="normal" text-anchor="middle">
    <tspan x="695" dy="0">Local Model Report Register</tspan>
  </text>
  <g>
    <rect x="70" y="427" width="390" height="34" fill="#F7F9FC" stroke="#6B7A90" stroke-width="2" rx="4" />
  </g>
  <text x="265" y="449" fill="#34495E" font-size="10" font-weight="normal" text-anchor="middle">
    <tspan x="265" dy="0">Local Result Table Register</tspan>
  </text>
  <g>
    <rect x="500" y="427" width="390" height="34" fill="#F7F9FC" stroke="#6B7A90" stroke-width="2" rx="4" />
  </g>
  <text x="695" y="449" fill="#34495E" font-size="10" font-weight="normal" text-anchor="middle">
    <tspan x="695" dy="0">Local Figure Evidence Register</tspan>
  </text>
  <g>
    <rect x="70" y="475" width="390" height="34" fill="#F7F9FC" stroke="#6B7A90" stroke-width="2" rx="4" />
  </g>
  <text x="265" y="497" fill="#34495E" font-size="10" font-weight="normal" text-anchor="middle">
    <tspan x="265" dy="0">PDF Evidence Register</tspan>
  </text>
  <g>
    <rect x="500" y="475" width="390" height="34" fill="#F7F9FC" stroke="#6B7A90" stroke-width="2" rx="4" />
  </g>
  <text x="695" y="497" fill="#34495E" font-size="10" font-weight="normal" text-anchor="middle">
    <tspan x="695" dy="0">Retrieval Audit Register</tspan>
  </text>
  <g>
    <rect x="70" y="543" width="820" height="75" fill="#FCE4D6" stroke="#E65100" stroke-width="2" rx="6" />
  </g>
  <text x="480" y="568" fill="#E65100" font-size="13" font-weight="bold" text-anchor="middle">
    <tspan x="480" dy="0">Post-Composition Controls</tspan>
  </text>
  <text x="480" y="592" fill="#7F3600" font-size="10" font-weight="normal" text-anchor="middle">
    <tspan x="480" dy="0">Citation validation | numeric traceability | retrieval audit | evidence graph | publication manifest</tspan>
  </text>
</svg>